<?xml version="1.0" standalone="no"?>
<!DOCTYPE svg PUBLIC "-//W3C//DTD SVG 20010904//EN"
 "http://www.w3.org/TR/2001/REC-SVG-20010904/DTD/svg10.dtd">
<svg version="1.0" xmlns="http://www.w3.org/2000/svg"
 width="100.000000pt" height="100.000000pt" viewBox="0 0 100.000000 100.000000"
 preserveAspectRatio="xMidYMid meet">
<metadata>
Created by potrace 1.14, written by Peter Selinger 2001-2017
</metadata>
<g transform="translate(0.000000,100.000000) scale(0.100000,-0.100000)"
fill="#000000" stroke="none">
<path d="M0 500 l0 -500 500 0 500 0 0 500 0 500 -500 0 -500 0 0 -500z m858
40 c-3 -264 -5 -288 -24 -330 -38 -83 -127 -149 -201 -150 l-33 0 0 100 c0 93
-1 100 -20 100 -11 0 -20 -7 -20 -15 0 -10 -10 -15 -34 -15 l-34 0 38 88 c22
48 46 88 55 90 12 3 15 21 15 98 0 52 -2 94 -4 94 -3 0 -57 -65 -122 -145 -64
-80 -118 -145 -120 -145 -2 0 -4 68 -4 150 l0 150 124 0 124 0 128 159 129
160 3 -52 c2 -29 2 -180 0 -337z m-462 -377 c28 -37 78 -78 114 -92 18 -7 -29
-10 -163 -10 -180 -1 -188 0 -175 17 7 10 49 64 93 119 l80 99 13 -50 c7 -27
24 -65 38 -83z"/>
<path d="M600 336 c0 -64 3 -76 16 -76 9 0 22 -7 28 -16 7 -9 23 -14 38 -12
l25 3 -36 85 c-23 52 -44 86 -54 88 -15 3 -17 -6 -17 -72z"/>
</g>
</svg>
